<svg xmlns="http://www.w3.org/2000/svg" viewBox="0 0 5640 5740" height="500" width="500">
	<circle fill="#0e267d" cx="50%" cy="50%" r="50%"></circle>

	<g fill="none" stroke="#fff8" stroke-width="20">
		<circle cx="50%" cy="50%" r="600" stroke-dasharray="60,60"/>
		<circle cx="50%" cy="50%" r="1300" stroke-dasharray="60,60"/>
		<circle cx="50%" cy="50%" r="2000" stroke-dasharray="50,50"/>
	  <circle cx="50%" cy="50%" r="2500" stroke-dasharray="40,40"/>
	</g>

	<circle cx="75.4%" cy="72.2%" r="380" fill="#0e267d"/>
	<g transform="scale(0.75) translate(1000, 1100)" stroke="#0e267d" stroke-width="20">
  <path d="M1655 5069c148-134 375-382 362-395-3-3-60-12-126-20-369-43-725-115-1010-206-104-32-354-128-349-133a5750 5750 0 0 0 1438 290l105 7 36-54c167-246 313-549 403-838 105-340 173-761 179-1106l2-142-31-38c-54-67-80-71-278-45-452 60-957 167-1470 311-254 71-293 69-457-28-211-123-449-352-449-432 0-22 48-140 57-140 3 0 40 33 83 72a948 948 0 0 0 648 258c115 0 1760-196 1808-215 17-7 44-29 59-50 37-47 42-124 26-375-31-485-123-650-417-749-70-23-233-48-376-58l-103-7 135-33c218-53 344-91 530-160 433-159 711-299 845-425 75-69 105-125 105-192 0-54-10-78-53-123l-30-32 64 15c228 52 500 163 647 263 63 43 152 133 152 154 0 36-137 127-288 190-184 78-503 168-785 223-137 26-192 77-190 177 1 59 21 90 86 132l144 92c148 95 137 79 107 154-47 114-54 190-43 414 9 174 14 205 32 239q43 76 147 76c51 0 328-18 626-40 201-14 323-61 483-184 37-29 70-46 87-46 47 0 255 51 394 97 255 84 446 197 466 277 14 59-44 121-128 136-22 4-149-3-291-16-399-36-725-54-1107-60-413-7-593 2-633 32-48 35-64 86-71 229-39 787-300 1426-789 1931a771 771 0 0 0-113 132c12 12 769 7 951-6 263-20 693-69 756-88 14-4 17-20 16-102-1-182 55-317 187-448 60-60 100-90 156-118a621 621 0 0 1 797 222l39 61c8 9 145-90 206-150 93-91 133-175 133-279 0-64-5-85-33-144-127-269-644-520-1392-676-170-36-138-38 57-5 633 108 1154 333 1339 578 74 99 88 137 88 247 1 92-1 99-38 175a814 814 0 0 1-262 279l-71 48 14 46c19 60 21 221 4 292-20 85-84 209-141 272a723 723 0 0 1-267 179c-59 21-87 24-203 24-129-1-139-2-215-33a625 625 0 0 1-334-307c-16-33-31-67-34-76-5-14-14-15-87-3a7862 7862 0 0 1-1477 84l-272-11-103 83c-113 91-295 217-428 295-135 79-140 79-55 2m3179-158c77-27 119-54 189-120a515 515 0 1 0-741-26c80 88 171 141 283 165 62 14 203 4 269-19"/>
	</g>
</svg>